<svg xmlns="http://www.w3.org/2000/svg" width="760" height="420" viewBox="0 0 760 420" role="img" aria-labelledby="title desc">
  <title id="title">Cartao digital de parceiro</title>
  <desc id="desc">Ilustracao de um cartao de partilha com servicos de telecomunicacoes e energia.</desc>
  <rect width="760" height="420" rx="28" fill="#f7fbf8"/>
  <rect x="32" y="34" width="696" height="352" rx="24" fill="#10231f"/>
  <path d="M520 34h184c13.3 0 24 10.7 24 24v268c-50.2 11.7-102 7.5-155.4-12.7-46.5-17.6-93.1-19.4-139.6-5.4V121c0-48 39-87 87-87Z" fill="#f1b35f"/>
  <path d="M32 271c82-23.4 152-18 210 16.2 58.3 34.3 125 35 200 2.2 75.2-32.8 170.5-34.6 286-5.4v78c0 13.3-10.7 24-24 24H56c-13.3 0-24-10.7-24-24v-91Z" fill="#1da987" opacity=".92"/>
  <g fill="#f7fbf8">
    <circle cx="92" cy="93" r="24"/>
    <rect x="128" y="72" width="148" height="16" rx="8"/>
    <rect x="128" y="102" width="92" height="10" rx="5" opacity=".7"/>
    <rect x="80" y="162" width="242" height="22" rx="11"/>
    <rect x="80" y="204" width="308" height="12" rx="6" opacity=".72"/>
    <rect x="80" y="228" width="262" height="12" rx="6" opacity=".72"/>
    <rect x="80" y="316" width="148" height="34" rx="17"/>
  </g>
  <g transform="translate(548 92)">
    <rect width="126" height="126" rx="18" fill="#fff"/>
    <g fill="#10231f">
      <rect x="16" y="16" width="30" height="30" rx="6"/>
      <rect x="80" y="16" width="30" height="30" rx="6"/>
      <rect x="16" y="80" width="30" height="30" rx="6"/>
      <rect x="56" y="20" width="12" height="12" rx="3"/>
      <rect x="56" y="44" width="30" height="10" rx="3"/>
      <rect x="20" y="58" width="42" height="10" rx="3"/>
      <rect x="72" y="64" width="12" height="30" rx="3"/>
      <rect x="92" y="72" width="18" height="10" rx="3"/>
      <rect x="56" y="98" width="46" height="10" rx="3"/>
    </g>
  </g>
</svg>
